<svg id="Layer_1" data-name="Layer 1" xmlns="http://www.w3.org/2000/svg" viewBox="0 0 219 32"><defs><style>.cls-1{fill:#288cc0;}.cls-2{fill:#e28432;}.cls-3{fill:#646569;}</style></defs><title>Artboard 1</title><path class="cls-1" d="M27.74,5,24.16,8.63a10.93,10.93,0,1,1-8.58-3.56V0A16,16,0,1,0,27.74,5Z"/><path class="cls-2" d="M23.44,7.91,27,4.33A15.93,15.93,0,0,0,16.59,0V5.07A10.88,10.88,0,0,1,23.44,7.91Z"/><path class="cls-3" d="M34.69,12.33h2.18v1.74h0a4.06,4.06,0,0,1,.59-.7,4.15,4.15,0,0,1,.91-.65,6,6,0,0,1,1.2-.48A5.35,5.35,0,0,1,41.11,12a5.11,5.11,0,0,1,2.34.51,4.86,4.86,0,0,1,1.67,1.37,5.88,5.88,0,0,1,1,2,8.56,8.56,0,0,1,.33,2.37,10.08,10.08,0,0,1-.3,2.48,6.56,6.56,0,0,1-.94,2.13,4.9,4.9,0,0,1-1.65,1.5,4.82,4.82,0,0,1-2.41.57,5.15,5.15,0,0,1-2.62-.57A4.3,4.3,0,0,1,37,23h0v6.78H34.69ZM44,18.45a6.73,6.73,0,0,0-.16-1.65,4.63,4.63,0,0,0-.59-1.48,3.25,3.25,0,0,0-1.07-1.05,3,3,0,0,0-1.57-.4,3.15,3.15,0,0,0-1.61.4,3.6,3.6,0,0,0-1.15,1.05,4.56,4.56,0,0,0-.68,1.49A6.74,6.74,0,0,0,37,18.53a6.43,6.43,0,0,0,.21,1.59,5,5,0,0,0,.64,1.49,3.5,3.5,0,0,0,1.13,1.1,3.11,3.11,0,0,0,1.66.42,2.66,2.66,0,0,0,1.57-.46,3.71,3.71,0,0,0,1.07-1.15A5.32,5.32,0,0,0,43.85,20,6,6,0,0,0,44,18.45Z"/><path class="cls-3" d="M57.75,24.17l-.7.25q-.36.13-.81.25a8.77,8.77,0,0,1-1,.21,9.62,9.62,0,0,1-1.34.08A7.58,7.58,0,0,1,51,24.49a5.31,5.31,0,0,1-2-1.36A5.59,5.59,0,0,1,47.84,21a9.11,9.11,0,0,1-.39-2.74,7.35,7.35,0,0,1,.41-2.52,5.83,5.83,0,0,1,1.17-2,5.28,5.28,0,0,1,1.83-1.3A5.94,5.94,0,0,1,53.24,12a5.65,5.65,0,0,1,2.59.53A4.39,4.39,0,0,1,57.5,14a6.32,6.32,0,0,1,.91,2.22A13.05,13.05,0,0,1,58.69,19H49.88a4.15,4.15,0,0,0,.33,1.67,4,4,0,0,0,.9,1.3,4.13,4.13,0,0,0,1.31.85,4,4,0,0,0,1.54.3A5.24,5.24,0,0,0,55.09,23a10.2,10.2,0,0,0,1.11-.32,6.25,6.25,0,0,0,.92-.4,4.77,4.77,0,0,0,.62-.39Zm-1.48-6.85A4.27,4.27,0,0,0,56.06,16a3.38,3.38,0,0,0-.59-1.1,2.67,2.67,0,0,0-1-.74,3.1,3.1,0,0,0-1.31-.27,3,3,0,0,0-1.44.31,3.16,3.16,0,0,0-1,.81,3.59,3.59,0,0,0-.61,1.1,5.94,5.94,0,0,0-.28,1.21Z"/><path class="cls-3" d="M60.53,12.33h2.2v2h0a3.62,3.62,0,0,1,1.62-1.66A5.07,5.07,0,0,1,66.83,12a4.21,4.21,0,0,1,3.51,1.41,6.13,6.13,0,0,1,1.11,3.9v7.34H69.18V18.28A7.28,7.28,0,0,0,68.62,15a2.29,2.29,0,0,0-2.06-1.16,3.58,3.58,0,0,0-1.68.38,3.24,3.24,0,0,0-1.17,1A4.64,4.64,0,0,0,63,16.9,9.15,9.15,0,0,0,62.81,19v5.72H60.53Z"/><path class="cls-3" d="M77.63,7.77h5a10.66,10.66,0,0,1,3.52.57A8.62,8.62,0,0,1,89,10a7.6,7.6,0,0,1,1.93,2.6,8.34,8.34,0,0,1,.7,3.5A10.24,10.24,0,0,1,91,19.82a7.16,7.16,0,0,1-1.79,2.69,7.55,7.55,0,0,1-2.83,1.62,12.06,12.06,0,0,1-3.75.55h-5Zm2.42,14.77H82.6A6.8,6.8,0,0,0,87.39,21a6.28,6.28,0,0,0,1.67-4.82,7,7,0,0,0-.47-2.64,5.71,5.71,0,0,0-1.31-2,5.62,5.62,0,0,0-2-1.23,6.84,6.84,0,0,0-2.43-.42H80.05Z"/><path class="cls-3" d="M94.42,13.2a9,9,0,0,1,1.86-.83,7.16,7.16,0,0,1,2.2-.33,4.91,4.91,0,0,1,3.81,1.28,5.57,5.57,0,0,1,1.15,3.83v5.11q0,1.07,0,1.61a6.57,6.57,0,0,0,.07.81h-2.13v-1.6h0a3.85,3.85,0,0,1-.53.62,4.33,4.33,0,0,1-.81.61,5.22,5.22,0,0,1-1.09.47,4.67,4.67,0,0,1-1.39.19,7.2,7.2,0,0,1-1.83-.22,3.89,3.89,0,0,1-1.44-.69,3.11,3.11,0,0,1-.93-1.2A4.23,4.23,0,0,1,93,21.12a3.18,3.18,0,0,1,.57-1.94A4.38,4.38,0,0,1,95,17.93a6.43,6.43,0,0,1,1.86-.68,9.58,9.58,0,0,1,1.89-.21H100q.53,0,1.21,0a3.73,3.73,0,0,0-.67-2.41,3,3,0,0,0-2.39-.81,5.73,5.73,0,0,0-1.93.34,5.41,5.41,0,0,0-1.66.92Zm6.76,5.6-.73,0-.73,0c-.31,0-.7,0-1.19.06a5.74,5.74,0,0,0-1.42.3,3.27,3.27,0,0,0-1.19.71,1.7,1.7,0,0,0-.5,1.3,1.68,1.68,0,0,0,.22.86,2.15,2.15,0,0,0,.55.63,2.39,2.39,0,0,0,.74.39,2.58,2.58,0,0,0,.8.13,3.35,3.35,0,0,0,2.57-.93,3.26,3.26,0,0,0,.87-2.31Z"/><path class="cls-3" d="M112.65,14.17h-3.27v6.76a2.2,2.2,0,0,0,.57,1.65,1.85,1.85,0,0,0,1.34.56,2.72,2.72,0,0,0,.91-.13,3.22,3.22,0,0,0,.64-.3v1.94q-.39.12-.88.23a4.88,4.88,0,0,1-1.05.11,4.18,4.18,0,0,1-2.79-.86,3.37,3.37,0,0,1-1-2.72V14.17h-2.79V12.33h2.79V9.47l2.28-.73v3.58h3.27Z"/><path class="cls-3" d="M114.88,13.2a9,9,0,0,1,1.86-.83A7.15,7.15,0,0,1,119,12a4.91,4.91,0,0,1,3.81,1.28,5.58,5.58,0,0,1,1.15,3.83v5.11q0,1.07,0,1.61a6.56,6.56,0,0,0,.07.81h-2.13v-1.6h0a3.85,3.85,0,0,1-.53.62,4.33,4.33,0,0,1-.81.61,5.21,5.21,0,0,1-1.09.47A4.66,4.66,0,0,1,118,25a7.2,7.2,0,0,1-1.83-.22,3.89,3.89,0,0,1-1.44-.69,3.11,3.11,0,0,1-.93-1.2,4.23,4.23,0,0,1-.33-1.74,3.18,3.18,0,0,1,.57-1.94,4.38,4.38,0,0,1,1.42-1.25,6.43,6.43,0,0,1,1.86-.68,9.58,9.58,0,0,1,1.89-.21h1.21q.53,0,1.21,0a3.73,3.73,0,0,0-.67-2.41,3,3,0,0,0-2.39-.81,5.73,5.73,0,0,0-1.93.34,5.4,5.4,0,0,0-1.66.92Zm6.76,5.6-.73,0-.73,0c-.31,0-.7,0-1.19.06a5.74,5.74,0,0,0-1.42.3,3.27,3.27,0,0,0-1.19.71,1.71,1.71,0,0,0-.5,1.3,1.68,1.68,0,0,0,.22.86,2.15,2.15,0,0,0,.55.63,2.39,2.39,0,0,0,.74.39,2.58,2.58,0,0,0,.8.13,3.35,3.35,0,0,0,2.57-.93,3.26,3.26,0,0,0,.87-2.31Z"/><path class="cls-3" d="M130.55,7.77h3.29l7.46,13.61h0V7.77h2.42V24.68h-3.1L133,10.78h0v13.9h-2.42Z"/><path class="cls-3" d="M156.1,24.17l-.7.25q-.36.13-.81.25a8.77,8.77,0,0,1-1,.21,9.62,9.62,0,0,1-1.34.08,7.58,7.58,0,0,1-2.85-.48,5.31,5.31,0,0,1-2-1.36A5.59,5.59,0,0,1,146.2,21a9.11,9.11,0,0,1-.39-2.74,7.35,7.35,0,0,1,.41-2.52,5.83,5.83,0,0,1,1.17-2,5.28,5.28,0,0,1,1.83-1.3A5.94,5.94,0,0,1,151.6,12a5.65,5.65,0,0,1,2.59.53A4.39,4.39,0,0,1,155.86,14a6.32,6.32,0,0,1,.91,2.22A13.06,13.06,0,0,1,157,19h-8.82a4.15,4.15,0,0,0,.33,1.67,4,4,0,0,0,.9,1.3,4.13,4.13,0,0,0,1.31.85,4,4,0,0,0,1.54.3,5.24,5.24,0,0,0,1.15-.13,10.2,10.2,0,0,0,1.11-.32,6.25,6.25,0,0,0,.92-.4,4.78,4.78,0,0,0,.62-.39Zm-1.48-6.85a4.27,4.27,0,0,0-.21-1.33,3.38,3.38,0,0,0-.59-1.1,2.67,2.67,0,0,0-1-.74,3.1,3.1,0,0,0-1.31-.27,3,3,0,0,0-1.44.31,3.16,3.16,0,0,0-1,.81,3.59,3.59,0,0,0-.61,1.1,6,6,0,0,0-.28,1.21Z"/><path class="cls-3" d="M165.45,14.17h-3.27v6.76a2.2,2.2,0,0,0,.57,1.65,1.85,1.85,0,0,0,1.34.56A2.72,2.72,0,0,0,165,23a3.22,3.22,0,0,0,.64-.3v1.94q-.39.12-.88.23a4.88,4.88,0,0,1-1.05.11,4.18,4.18,0,0,1-2.79-.86,3.37,3.37,0,0,1-1-2.72V14.17h-2.79V12.33h2.79V9.47l2.28-.73v3.58h3.27Z"/><path class="cls-3" d="M181.07,24.68h-2.64l-3.2-10.37h0l-3.12,10.37h-2.64l-4-12.35h2.49l2.83,10.22h0L174,12.33h2.69l3.1,10.22h0l3-10.22H185Z"/><path class="cls-3" d="M185.24,18.5a7.29,7.29,0,0,1,.45-2.59,5.87,5.87,0,0,1,1.28-2,6,6,0,0,1,2-1.34,7.08,7.08,0,0,1,5.15,0,5.81,5.81,0,0,1,2,1.34,6,6,0,0,1,1.27,2,7.29,7.29,0,0,1,.45,2.59,6.82,6.82,0,0,1-.46,2.51,6.43,6.43,0,0,1-1.28,2.06,5.92,5.92,0,0,1-2,1.39,6.64,6.64,0,0,1-5.1,0,6.08,6.08,0,0,1-2-1.39A6.31,6.31,0,0,1,185.7,21,6.81,6.81,0,0,1,185.24,18.5Zm2.42,0a6.08,6.08,0,0,0,.23,1.65,4.78,4.78,0,0,0,.7,1.49,3.66,3.66,0,0,0,1.2,1.08,3.48,3.48,0,0,0,1.74.41,3.43,3.43,0,0,0,1.72-.41,3.65,3.65,0,0,0,1.2-1.08,4.78,4.78,0,0,0,.7-1.49,6.09,6.09,0,0,0,.23-1.65,5.59,5.59,0,0,0-.27-1.71,5.06,5.06,0,0,0-.75-1.49,3.58,3.58,0,0,0-1.21-1,3.61,3.61,0,0,0-3.26,0,3.74,3.74,0,0,0-1.21,1,4.89,4.89,0,0,0-.76,1.49A5.59,5.59,0,0,0,187.66,18.5Z"/><path class="cls-3" d="M199.65,12.33h2.13v1.91h0a4,4,0,0,1,1.34-1.59,3.22,3.22,0,0,1,1.88-.62,5.69,5.69,0,0,1,.82,0l.68.12v2a3,3,0,0,0-.64-.17,4.16,4.16,0,0,0-.62,0,2.83,2.83,0,0,0-2.45,1.36,6.47,6.47,0,0,0-.92,3.68v5.62h-2.28Z"/><path class="cls-3" d="M207.86,6.52h2.28V17.34l5-5h3.1l-5.74,5.47,6.47,6.88h-3.27l-5.52-6.35v6.35h-2.28Z"/></svg>